<mxfile host="app.diagrams.net" modified="2024-01-16T12:51:39.456Z" agent="Mozilla/5.0 (Windows NT 10.0; Win64; x64) AppleWebKit/537.36 (KHTML, like Gecko) Chrome/120.0.0.0 Safari/537.36" etag="Z4jlMilQ6Ril7ACT3D9b" version="22.1.18" type="github">
  <diagram name="Página-1" id="TUS5gieN1rz3YTIe_Czn">
    <mxGraphModel dx="4327" dy="2010" grid="1" gridSize="10" guides="1" tooltips="1" connect="1" arrows="1" fold="1" page="1" pageScale="1" pageWidth="827" pageHeight="1169" math="0" shadow="0">
      <root>
        <mxCell id="0" />
        <mxCell id="1" parent="0" />
        <mxCell id="rqhiMFswElO3rEXaBHQ_-1" value="Usuario" style="shape=umlActor;html=1;verticalLabelPosition=bottom;verticalAlign=top;align=center;" vertex="1" parent="1">
          <mxGeometry x="47.5" y="140" width="30" height="60" as="geometry" />
        </mxCell>
        <mxCell id="rqhiMFswElO3rEXaBHQ_-2" value="Bibliotecario" style="shape=umlActor;html=1;verticalLabelPosition=bottom;verticalAlign=top;align=center;" vertex="1" parent="1">
          <mxGeometry x="112.5" y="140" width="30" height="60" as="geometry" />
        </mxCell>
        <mxCell id="rqhiMFswElO3rEXaBHQ_-4" value="&lt;u&gt;Actores&lt;/u&gt;" style="text;html=1;strokeColor=none;fillColor=none;align=center;verticalAlign=middle;whiteSpace=wrap;rounded=0;" vertex="1" parent="1">
          <mxGeometry x="32.5" y="90" width="60" height="30" as="geometry" />
        </mxCell>
        <mxCell id="rqhiMFswElO3rEXaBHQ_-5" value="C.U.1: Buscar Libro" style="ellipse;whiteSpace=wrap;html=1;fillColor=#dae8fc;strokeColor=#6c8ebf;" vertex="1" parent="1">
          <mxGeometry x="27.5" y="360" width="140" height="70" as="geometry" />
        </mxCell>
        <mxCell id="rqhiMFswElO3rEXaBHQ_-6" value="&lt;u&gt;Casos de Uso&lt;/u&gt;" style="text;html=1;strokeColor=none;fillColor=none;align=center;verticalAlign=middle;whiteSpace=wrap;rounded=0;" vertex="1" parent="1">
          <mxGeometry x="32.5" y="300" width="80" height="30" as="geometry" />
        </mxCell>
        <mxCell id="rqhiMFswElO3rEXaBHQ_-8" value="C.U.3: Seleccionar libro dispinible y prestar" style="ellipse;whiteSpace=wrap;html=1;fillColor=#dae8fc;strokeColor=#6c8ebf;" vertex="1" parent="1">
          <mxGeometry x="27.5" y="450" width="140" height="70" as="geometry" />
        </mxCell>
        <mxCell id="rqhiMFswElO3rEXaBHQ_-9" value="C.U.4: Devuelve libro prestado" style="ellipse;whiteSpace=wrap;html=1;fillColor=#dae8fc;strokeColor=#6c8ebf;" vertex="1" parent="1">
          <mxGeometry x="27.5" y="540" width="140" height="70" as="geometry" />
        </mxCell>
        <mxCell id="rqhiMFswElO3rEXaBHQ_-10" value="C.U.5: Deja comentario en libro" style="ellipse;whiteSpace=wrap;html=1;fillColor=#dae8fc;strokeColor=#6c8ebf;" vertex="1" parent="1">
          <mxGeometry x="207.5" y="360" width="140" height="70" as="geometry" />
        </mxCell>
        <mxCell id="rqhiMFswElO3rEXaBHQ_-11" value="C.U.6: Seleccionar categoría y ver lista de libros" style="ellipse;whiteSpace=wrap;html=1;fillColor=#dae8fc;strokeColor=#6c8ebf;" vertex="1" parent="1">
          <mxGeometry x="207.5" y="450" width="140" height="70" as="geometry" />
        </mxCell>
        <mxCell id="rqhiMFswElO3rEXaBHQ_-12" value="C.U.7: Registrar nuevo usuario en sistema" style="ellipse;whiteSpace=wrap;html=1;fillColor=#dae8fc;strokeColor=#6c8ebf;" vertex="1" parent="1">
          <mxGeometry x="397.5" y="350" width="140" height="70" as="geometry" />
        </mxCell>
        <mxCell id="rqhiMFswElO3rEXaBHQ_-13" value="C.U.8: Agregar un nuevo libro al sistema" style="ellipse;whiteSpace=wrap;html=1;fillColor=#dae8fc;strokeColor=#6c8ebf;" vertex="1" parent="1">
          <mxGeometry x="397.5" y="450" width="140" height="70" as="geometry" />
        </mxCell>
        <mxCell id="rqhiMFswElO3rEXaBHQ_-14" value="C.U.9: Realizar préstamo a usuario" style="ellipse;whiteSpace=wrap;html=1;fillColor=#dae8fc;strokeColor=#6c8ebf;" vertex="1" parent="1">
          <mxGeometry x="397.5" y="540" width="140" height="70" as="geometry" />
        </mxCell>
        <mxCell id="rqhiMFswElO3rEXaBHQ_-15" value="C.U.10: Procesa la devolución de un libro" style="ellipse;whiteSpace=wrap;html=1;fillColor=#dae8fc;strokeColor=#6c8ebf;" vertex="1" parent="1">
          <mxGeometry x="397.5" y="630" width="140" height="70" as="geometry" />
        </mxCell>
        <mxCell id="rqhiMFswElO3rEXaBHQ_-16" value="C.U.11: Gestiona las reservas de libros" style="ellipse;whiteSpace=wrap;html=1;fillColor=#dae8fc;strokeColor=#6c8ebf;" vertex="1" parent="1">
          <mxGeometry x="557.5" y="350" width="140" height="70" as="geometry" />
        </mxCell>
        <mxCell id="rqhiMFswElO3rEXaBHQ_-17" value="Seleccionar categoría" style="ellipse;whiteSpace=wrap;html=1;fillColor=#f8cecc;strokeColor=#b85450;" vertex="1" parent="1">
          <mxGeometry x="797.5" y="340" width="140" height="70" as="geometry" />
        </mxCell>
        <mxCell id="rqhiMFswElO3rEXaBHQ_-18" value="&lt;u&gt;Include&lt;/u&gt;" style="text;html=1;strokeColor=none;fillColor=none;align=center;verticalAlign=middle;whiteSpace=wrap;rounded=0;" vertex="1" parent="1">
          <mxGeometry x="797.5" y="290" width="80" height="30" as="geometry" />
        </mxCell>
        <mxCell id="rqhiMFswElO3rEXaBHQ_-19" value="Visualiza Información" style="ellipse;whiteSpace=wrap;html=1;fillColor=#d5e8d4;strokeColor=#82b366;" vertex="1" parent="1">
          <mxGeometry x="797.5" y="490" width="140" height="70" as="geometry" />
        </mxCell>
        <mxCell id="rqhiMFswElO3rEXaBHQ_-20" value="Modifica" style="ellipse;whiteSpace=wrap;html=1;fillColor=#d5e8d4;strokeColor=#82b366;" vertex="1" parent="1">
          <mxGeometry x="797.5" y="580" width="140" height="70" as="geometry" />
        </mxCell>
        <mxCell id="rqhiMFswElO3rEXaBHQ_-21" value="Buscar por Titulo" style="ellipse;whiteSpace=wrap;html=1;fillColor=#d5e8d4;strokeColor=#82b366;" vertex="1" parent="1">
          <mxGeometry x="797.5" y="680" width="140" height="70" as="geometry" />
        </mxCell>
        <mxCell id="rqhiMFswElO3rEXaBHQ_-22" value="Buscar por Autor" style="ellipse;whiteSpace=wrap;html=1;fillColor=#d5e8d4;strokeColor=#82b366;" vertex="1" parent="1">
          <mxGeometry x="797.5" y="770" width="140" height="70" as="geometry" />
        </mxCell>
        <mxCell id="rqhiMFswElO3rEXaBHQ_-23" value="Buscar por Categoría" style="ellipse;whiteSpace=wrap;html=1;fillColor=#d5e8d4;strokeColor=#82b366;" vertex="1" parent="1">
          <mxGeometry x="797.5" y="860" width="140" height="70" as="geometry" />
        </mxCell>
        <mxCell id="rqhiMFswElO3rEXaBHQ_-24" value="&lt;u&gt;Extended&lt;/u&gt;" style="text;html=1;strokeColor=none;fillColor=none;align=center;verticalAlign=middle;whiteSpace=wrap;rounded=0;" vertex="1" parent="1">
          <mxGeometry x="797.5" y="440" width="80" height="30" as="geometry" />
        </mxCell>
        <mxCell id="rqhiMFswElO3rEXaBHQ_-25" value="C.U.1: Buscar Libro" style="ellipse;whiteSpace=wrap;html=1;fillColor=#dae8fc;strokeColor=#6c8ebf;" vertex="1" parent="1">
          <mxGeometry x="40" y="1210" width="140" height="70" as="geometry" />
        </mxCell>
        <mxCell id="rqhiMFswElO3rEXaBHQ_-26" value="C.U.3: Seleccionar libro dispinible y prestar" style="ellipse;whiteSpace=wrap;html=1;fillColor=#dae8fc;strokeColor=#6c8ebf;" vertex="1" parent="1">
          <mxGeometry x="40" y="1300" width="140" height="70" as="geometry" />
        </mxCell>
        <mxCell id="rqhiMFswElO3rEXaBHQ_-27" value="C.U.4: Devuelve libro prestado" style="ellipse;whiteSpace=wrap;html=1;fillColor=#dae8fc;strokeColor=#6c8ebf;" vertex="1" parent="1">
          <mxGeometry x="40" y="1390" width="140" height="70" as="geometry" />
        </mxCell>
        <mxCell id="rqhiMFswElO3rEXaBHQ_-28" value="C.U.5: Deja comentario en libro" style="ellipse;whiteSpace=wrap;html=1;fillColor=#dae8fc;strokeColor=#6c8ebf;" vertex="1" parent="1">
          <mxGeometry x="40" y="1490" width="140" height="70" as="geometry" />
        </mxCell>
        <mxCell id="rqhiMFswElO3rEXaBHQ_-29" value="C.U.6: Seleccionar categoría y ver lista de libros" style="ellipse;whiteSpace=wrap;html=1;fillColor=#dae8fc;strokeColor=#6c8ebf;" vertex="1" parent="1">
          <mxGeometry x="40" y="1590" width="140" height="70" as="geometry" />
        </mxCell>
        <mxCell id="rqhiMFswElO3rEXaBHQ_-30" value="C.U.7: Registrar nuevo usuario en sistema" style="ellipse;whiteSpace=wrap;html=1;fillColor=#dae8fc;strokeColor=#6c8ebf;" vertex="1" parent="1">
          <mxGeometry x="760" y="1210" width="140" height="70" as="geometry" />
        </mxCell>
        <mxCell id="rqhiMFswElO3rEXaBHQ_-31" value="C.U.8: Agregar un nuevo libro al sistema" style="ellipse;whiteSpace=wrap;html=1;fillColor=#dae8fc;strokeColor=#6c8ebf;" vertex="1" parent="1">
          <mxGeometry x="760" y="1310" width="140" height="70" as="geometry" />
        </mxCell>
        <mxCell id="rqhiMFswElO3rEXaBHQ_-32" value="C.U.9: Realizar préstamo a usuario" style="ellipse;whiteSpace=wrap;html=1;fillColor=#dae8fc;strokeColor=#6c8ebf;" vertex="1" parent="1">
          <mxGeometry x="760" y="1400" width="140" height="70" as="geometry" />
        </mxCell>
        <mxCell id="rqhiMFswElO3rEXaBHQ_-33" value="C.U.10: Procesa la devolución de un libro" style="ellipse;whiteSpace=wrap;html=1;fillColor=#dae8fc;strokeColor=#6c8ebf;" vertex="1" parent="1">
          <mxGeometry x="760" y="1490" width="140" height="70" as="geometry" />
        </mxCell>
        <mxCell id="rqhiMFswElO3rEXaBHQ_-34" value="C.U.11: Gestiona las reservas de libros" style="ellipse;whiteSpace=wrap;html=1;fillColor=#dae8fc;strokeColor=#6c8ebf;" vertex="1" parent="1">
          <mxGeometry x="760" y="1580" width="140" height="70" as="geometry" />
        </mxCell>
        <mxCell id="rqhiMFswElO3rEXaBHQ_-38" style="rounded=0;orthogonalLoop=1;jettySize=auto;html=1;entryX=0;entryY=0.5;entryDx=0;entryDy=0;endArrow=none;endFill=0;" edge="1" parent="1" source="rqhiMFswElO3rEXaBHQ_-35" target="rqhiMFswElO3rEXaBHQ_-25">
          <mxGeometry relative="1" as="geometry" />
        </mxCell>
        <mxCell id="rqhiMFswElO3rEXaBHQ_-39" style="rounded=0;orthogonalLoop=1;jettySize=auto;html=1;entryX=0;entryY=0.5;entryDx=0;entryDy=0;endArrow=none;endFill=0;" edge="1" parent="1" source="rqhiMFswElO3rEXaBHQ_-35" target="rqhiMFswElO3rEXaBHQ_-26">
          <mxGeometry relative="1" as="geometry" />
        </mxCell>
        <mxCell id="rqhiMFswElO3rEXaBHQ_-40" style="rounded=0;orthogonalLoop=1;jettySize=auto;html=1;entryX=0;entryY=0.5;entryDx=0;entryDy=0;endArrow=none;endFill=0;" edge="1" parent="1" source="rqhiMFswElO3rEXaBHQ_-35" target="rqhiMFswElO3rEXaBHQ_-27">
          <mxGeometry relative="1" as="geometry" />
        </mxCell>
        <mxCell id="rqhiMFswElO3rEXaBHQ_-41" style="rounded=0;orthogonalLoop=1;jettySize=auto;html=1;entryX=0;entryY=0.5;entryDx=0;entryDy=0;endArrow=none;endFill=0;" edge="1" parent="1" source="rqhiMFswElO3rEXaBHQ_-35" target="rqhiMFswElO3rEXaBHQ_-28">
          <mxGeometry relative="1" as="geometry" />
        </mxCell>
        <mxCell id="rqhiMFswElO3rEXaBHQ_-42" style="rounded=0;orthogonalLoop=1;jettySize=auto;html=1;entryX=0;entryY=0.5;entryDx=0;entryDy=0;endArrow=none;endFill=0;" edge="1" parent="1" source="rqhiMFswElO3rEXaBHQ_-35" target="rqhiMFswElO3rEXaBHQ_-29">
          <mxGeometry relative="1" as="geometry" />
        </mxCell>
        <mxCell id="rqhiMFswElO3rEXaBHQ_-35" value="Usuario" style="shape=umlActor;html=1;verticalLabelPosition=bottom;verticalAlign=top;align=center;" vertex="1" parent="1">
          <mxGeometry x="-220" y="1395" width="30" height="60" as="geometry" />
        </mxCell>
        <mxCell id="rqhiMFswElO3rEXaBHQ_-54" style="rounded=0;orthogonalLoop=1;jettySize=auto;html=1;entryX=1;entryY=0.5;entryDx=0;entryDy=0;endArrow=none;endFill=0;" edge="1" parent="1" source="rqhiMFswElO3rEXaBHQ_-36" target="rqhiMFswElO3rEXaBHQ_-30">
          <mxGeometry relative="1" as="geometry" />
        </mxCell>
        <mxCell id="rqhiMFswElO3rEXaBHQ_-55" style="rounded=0;orthogonalLoop=1;jettySize=auto;html=1;entryX=1;entryY=0.5;entryDx=0;entryDy=0;endArrow=none;endFill=0;" edge="1" parent="1" source="rqhiMFswElO3rEXaBHQ_-36" target="rqhiMFswElO3rEXaBHQ_-31">
          <mxGeometry relative="1" as="geometry" />
        </mxCell>
        <mxCell id="rqhiMFswElO3rEXaBHQ_-56" style="rounded=0;orthogonalLoop=1;jettySize=auto;html=1;entryX=1;entryY=0.5;entryDx=0;entryDy=0;endArrow=none;endFill=0;" edge="1" parent="1" source="rqhiMFswElO3rEXaBHQ_-36" target="rqhiMFswElO3rEXaBHQ_-32">
          <mxGeometry relative="1" as="geometry" />
        </mxCell>
        <mxCell id="rqhiMFswElO3rEXaBHQ_-57" style="rounded=0;orthogonalLoop=1;jettySize=auto;html=1;entryX=1;entryY=0.5;entryDx=0;entryDy=0;endArrow=none;endFill=0;" edge="1" parent="1" source="rqhiMFswElO3rEXaBHQ_-36" target="rqhiMFswElO3rEXaBHQ_-33">
          <mxGeometry relative="1" as="geometry" />
        </mxCell>
        <mxCell id="rqhiMFswElO3rEXaBHQ_-58" style="rounded=0;orthogonalLoop=1;jettySize=auto;html=1;entryX=1;entryY=0.5;entryDx=0;entryDy=0;endArrow=none;endFill=0;" edge="1" parent="1" source="rqhiMFswElO3rEXaBHQ_-36" target="rqhiMFswElO3rEXaBHQ_-34">
          <mxGeometry relative="1" as="geometry" />
        </mxCell>
        <mxCell id="rqhiMFswElO3rEXaBHQ_-36" value="Bibliotecario" style="shape=umlActor;html=1;verticalLabelPosition=bottom;verticalAlign=top;align=center;" vertex="1" parent="1">
          <mxGeometry x="1110" y="1395" width="30" height="60" as="geometry" />
        </mxCell>
        <mxCell id="rqhiMFswElO3rEXaBHQ_-43" value="Buscar por Titulo" style="ellipse;whiteSpace=wrap;html=1;fillColor=#d5e8d4;strokeColor=#82b366;" vertex="1" parent="1">
          <mxGeometry x="310" y="1120" width="140" height="70" as="geometry" />
        </mxCell>
        <mxCell id="rqhiMFswElO3rEXaBHQ_-44" value="Buscar por Autor" style="ellipse;whiteSpace=wrap;html=1;fillColor=#d5e8d4;strokeColor=#82b366;" vertex="1" parent="1">
          <mxGeometry x="310" y="1210" width="140" height="70" as="geometry" />
        </mxCell>
        <mxCell id="rqhiMFswElO3rEXaBHQ_-45" value="Buscar por Categoría" style="ellipse;whiteSpace=wrap;html=1;fillColor=#d5e8d4;strokeColor=#82b366;" vertex="1" parent="1">
          <mxGeometry x="310" y="1300" width="140" height="70" as="geometry" />
        </mxCell>
        <mxCell id="rqhiMFswElO3rEXaBHQ_-46" value="Seleccionar categoría" style="ellipse;whiteSpace=wrap;html=1;fillColor=#f8cecc;strokeColor=#b85450;" vertex="1" parent="1">
          <mxGeometry x="310" y="1590" width="140" height="70" as="geometry" />
        </mxCell>
        <mxCell id="rqhiMFswElO3rEXaBHQ_-50" value="&amp;lt;&amp;lt;extend&amp;gt;&amp;gt;" style="edgeStyle=none;html=1;startArrow=open;endArrow=none;startSize=12;verticalAlign=bottom;dashed=1;labelBackgroundColor=none;rounded=0;entryX=0;entryY=0.5;entryDx=0;entryDy=0;exitX=1;exitY=0.5;exitDx=0;exitDy=0;" edge="1" parent="1" source="rqhiMFswElO3rEXaBHQ_-25" target="rqhiMFswElO3rEXaBHQ_-43">
          <mxGeometry width="160" relative="1" as="geometry">
            <mxPoint x="50" y="990" as="sourcePoint" />
            <mxPoint x="210" y="990" as="targetPoint" />
          </mxGeometry>
        </mxCell>
        <mxCell id="rqhiMFswElO3rEXaBHQ_-51" value="&amp;lt;&amp;lt;include&amp;gt;&amp;gt;" style="edgeStyle=none;html=1;endArrow=open;verticalAlign=bottom;dashed=1;labelBackgroundColor=none;rounded=0;exitX=1;exitY=0.5;exitDx=0;exitDy=0;entryX=0;entryY=0.5;entryDx=0;entryDy=0;" edge="1" parent="1" source="rqhiMFswElO3rEXaBHQ_-29" target="rqhiMFswElO3rEXaBHQ_-46">
          <mxGeometry width="160" relative="1" as="geometry">
            <mxPoint x="160" y="1690" as="sourcePoint" />
            <mxPoint x="320" y="1690" as="targetPoint" />
          </mxGeometry>
        </mxCell>
        <mxCell id="rqhiMFswElO3rEXaBHQ_-52" value="&amp;lt;&amp;lt;extend&amp;gt;&amp;gt;" style="edgeStyle=none;html=1;startArrow=open;endArrow=none;startSize=12;verticalAlign=bottom;dashed=1;labelBackgroundColor=none;rounded=0;entryX=0;entryY=0.5;entryDx=0;entryDy=0;" edge="1" parent="1" target="rqhiMFswElO3rEXaBHQ_-44">
          <mxGeometry width="160" relative="1" as="geometry">
            <mxPoint x="180" y="1245" as="sourcePoint" />
            <mxPoint x="320" y="1165" as="targetPoint" />
          </mxGeometry>
        </mxCell>
        <mxCell id="rqhiMFswElO3rEXaBHQ_-53" value="&amp;lt;&amp;lt;extend&amp;gt;&amp;gt;" style="edgeStyle=none;html=1;startArrow=open;endArrow=none;startSize=12;verticalAlign=bottom;dashed=1;labelBackgroundColor=none;rounded=0;entryX=0;entryY=0.5;entryDx=0;entryDy=0;exitX=1;exitY=0.5;exitDx=0;exitDy=0;" edge="1" parent="1" source="rqhiMFswElO3rEXaBHQ_-25" target="rqhiMFswElO3rEXaBHQ_-45">
          <mxGeometry width="160" relative="1" as="geometry">
            <mxPoint x="190" y="1255" as="sourcePoint" />
            <mxPoint x="320" y="1255" as="targetPoint" />
          </mxGeometry>
        </mxCell>
        <mxCell id="rqhiMFswElO3rEXaBHQ_-59" value="Modifica" style="ellipse;whiteSpace=wrap;html=1;fillColor=#d5e8d4;strokeColor=#82b366;" vertex="1" parent="1">
          <mxGeometry x="504" y="1625" width="140" height="70" as="geometry" />
        </mxCell>
        <mxCell id="rqhiMFswElO3rEXaBHQ_-60" value="Visualiza Información" style="ellipse;whiteSpace=wrap;html=1;fillColor=#d5e8d4;strokeColor=#82b366;" vertex="1" parent="1">
          <mxGeometry x="504" y="1535" width="140" height="70" as="geometry" />
        </mxCell>
        <mxCell id="rqhiMFswElO3rEXaBHQ_-62" value="&amp;lt;&amp;lt;extend&amp;gt;&amp;gt;" style="edgeStyle=none;html=1;startArrow=open;endArrow=none;startSize=12;verticalAlign=bottom;dashed=1;labelBackgroundColor=none;rounded=0;entryX=1;entryY=0.5;entryDx=0;entryDy=0;exitX=0;exitY=0.5;exitDx=0;exitDy=0;" edge="1" parent="1" source="rqhiMFswElO3rEXaBHQ_-34" target="rqhiMFswElO3rEXaBHQ_-60">
          <mxGeometry width="160" relative="1" as="geometry">
            <mxPoint x="580" y="1420" as="sourcePoint" />
            <mxPoint x="710" y="1510" as="targetPoint" />
          </mxGeometry>
        </mxCell>
        <mxCell id="rqhiMFswElO3rEXaBHQ_-63" value="&amp;lt;&amp;lt;extend&amp;gt;&amp;gt;" style="edgeStyle=none;html=1;startArrow=open;endArrow=none;startSize=12;verticalAlign=bottom;dashed=1;labelBackgroundColor=none;rounded=0;entryX=1;entryY=0.5;entryDx=0;entryDy=0;exitX=0;exitY=0.5;exitDx=0;exitDy=0;" edge="1" parent="1" source="rqhiMFswElO3rEXaBHQ_-34" target="rqhiMFswElO3rEXaBHQ_-59">
          <mxGeometry width="160" relative="1" as="geometry">
            <mxPoint x="760" y="1610" as="sourcePoint" />
            <mxPoint x="690" y="1590" as="targetPoint" />
          </mxGeometry>
        </mxCell>
        <mxCell id="rqhiMFswElO3rEXaBHQ_-64" value="Gestión de Biblioteca" style="shape=rect;html=1;verticalAlign=top;fontStyle=1;whiteSpace=wrap;align=center;fillColor=none;" vertex="1" parent="1">
          <mxGeometry x="-25" y="1070" width="1015" height="690" as="geometry" />
        </mxCell>
      </root>
    </mxGraphModel>
  </diagram>
</mxfile>
